<svg width="58" height="58" viewBox="0 0 58 58" fill="none" xmlns="http://www.w3.org/2000/svg">
<path d="M54.3125 1.8125H22.4375C21.6923 1.81473 20.9782 2.11176 20.4512 2.63872C19.9243 3.16569 19.6272 3.87976 19.625 4.625V21.5C19.6272 22.2452 19.9243 22.9593 20.4512 23.4863C20.9782 24.0132 21.6923 24.3103 22.4375 24.3125H29V29C29.0006 29.2014 29.0655 29.3973 29.1852 29.5592C29.3049 29.7211 29.4733 29.8405 29.6656 29.9C29.7538 29.9262 29.8455 29.9389 29.9375 29.9375C30.0922 29.938 30.2445 29.8997 30.3805 29.826C30.5164 29.7523 30.6317 29.6455 30.7156 29.5156L34.1938 24.3125H54.3125C55.0577 24.3103 55.7718 24.0132 56.2988 23.4863C56.8257 22.9593 57.1228 22.2452 57.125 21.5V4.625C57.1228 3.87976 56.8257 3.16569 56.2988 2.63872C55.7718 2.11176 55.0577 1.81473 54.3125 1.8125ZM55.25 21.5C55.25 21.7486 55.1512 21.9871 54.9754 22.1629C54.7996 22.3387 54.5611 22.4375 54.3125 22.4375H33.6875C33.5331 22.4383 33.3813 22.4772 33.2455 22.5508C33.1098 22.6244 32.9943 22.7304 32.9094 22.8594L30.875 25.9062V23.375C30.875 23.1264 30.7762 22.8879 30.6004 22.7121C30.4246 22.5363 30.1861 22.4375 29.9375 22.4375H22.4375C22.1889 22.4375 21.9504 22.3387 21.7746 22.1629C21.5988 21.9871 21.5 21.7486 21.5 21.5V4.625C21.5 4.37636 21.5988 4.1379 21.7746 3.96209C21.9504 3.78627 22.1889 3.6875 22.4375 3.6875H54.3125C54.5611 3.6875 54.7996 3.78627 54.9754 3.96209C55.1512 4.1379 55.25 4.37636 55.25 4.625V21.5Z" fill="white"/>
<path d="M19.625 40.25C19.3764 40.25 19.1379 40.3488 18.9621 40.5246C18.7863 40.7004 18.6875 40.9389 18.6875 41.1875C18.6875 42.1821 18.2924 43.1359 17.5891 43.8391C16.8859 44.5424 15.9321 44.9375 14.9375 44.9375C14.6889 44.9375 14.4504 45.0363 14.2746 45.2121C14.0988 45.3879 14 45.6264 14 45.875C14 46.1236 14.0988 46.3621 14.2746 46.5379C14.4504 46.7137 14.6889 46.8125 14.9375 46.8125C16.4289 46.811 17.8588 46.2179 18.9133 45.1633C19.9679 44.1088 20.561 42.6789 20.5625 41.1875C20.5625 40.9389 20.4637 40.7004 20.2879 40.5246C20.1121 40.3488 19.8736 40.25 19.625 40.25Z" fill="white"/>
<path d="M26.3094 36.3969C26.049 36.1316 25.7382 35.9211 25.3953 35.7778C25.0523 35.6345 24.6842 35.5613 24.3125 35.5625V33.6875C24.3085 31.2023 23.3195 28.82 21.5622 27.0628C19.8049 25.3055 17.4227 24.3165 14.9375 24.3125H13.0625C10.5773 24.3165 8.19505 25.3055 6.43776 27.0628C4.68046 28.82 3.69147 31.2023 3.6875 33.6875V35.5625C2.94158 35.5625 2.22621 35.8588 1.69876 36.3863C1.17132 36.9137 0.875 37.6291 0.875 38.375C0.877226 39.1202 1.17426 39.8343 1.70122 40.3613C2.22819 40.8882 2.94226 41.1853 3.6875 41.1875C3.69147 43.6727 4.68046 46.055 6.43776 47.8122C8.19505 49.5695 10.5773 50.5585 13.0625 50.5625H14.9375C16.3954 50.56 17.8327 50.2172 19.1347 49.5613C20.4368 48.9054 21.5678 47.9545 22.4375 46.7844V47.75C22.4359 49.4128 21.8829 51.028 20.865 52.3428C19.8471 53.6576 18.4219 54.5976 16.8125 55.0156V54.3125C16.8125 53.5666 16.5162 52.8512 15.9887 52.3238C15.4613 51.7963 14.7459 51.5 14 51.5C13.2548 51.5022 12.5407 51.7993 12.0137 52.3262C11.4868 52.8532 11.1897 53.5673 11.1875 54.3125V56.1875C11.1875 56.4361 11.2863 56.6746 11.4621 56.8504C11.6379 57.0262 11.8764 57.125 12.125 57.125H14.9375C17.4227 57.121 19.8049 56.132 21.5622 54.3747C23.3195 52.6175 24.3085 50.2352 24.3125 47.75V41.1875C25.0577 41.1853 25.7718 40.8882 26.2988 40.3613C26.8257 39.8343 27.1228 39.1202 27.125 38.375C27.127 38.0077 27.056 37.6436 26.9159 37.304C26.7759 36.9644 26.5697 36.656 26.3094 36.3969ZM3.6875 39.3125C3.43886 39.3125 3.2004 39.2137 3.02459 39.0379C2.84877 38.8621 2.75 38.6236 2.75 38.375C2.7489 38.2499 2.77422 38.1259 2.8243 38.0112C2.87438 37.8965 2.94809 37.7936 3.04062 37.7094C3.12366 37.6216 3.22407 37.5521 3.33544 37.5053C3.44681 37.4585 3.56671 37.4354 3.6875 37.4375V39.3125ZM14.9375 55.25H13.0625V54.3125C13.0625 54.0639 13.1613 53.8254 13.3371 53.6496C13.5129 53.4738 13.7514 53.375 14 53.375C14.1251 53.3739 14.2491 53.3992 14.3638 53.4493C14.4785 53.4994 14.5814 53.5731 14.6656 53.6656C14.7534 53.7487 14.8229 53.8491 14.8697 53.9604C14.9165 54.0718 14.9396 54.1917 14.9375 54.3125V55.25ZM5.5625 33.6875C5.56523 31.6992 6.35628 29.7931 7.76221 28.3872C9.16814 26.9813 11.0742 26.1902 13.0625 26.1875H14.9375C16.8725 26.1908 18.7313 26.9418 20.1255 28.2836C21.5197 29.6254 22.3414 31.4541 22.4187 33.3875C21.2215 34.9795 19.665 36.2662 17.8762 37.1427C16.0874 38.0192 14.1168 38.4607 12.125 38.4313V34.625C12.1235 34.4247 12.0578 34.2302 11.9377 34.0699C11.8175 33.9096 11.6492 33.7921 11.4574 33.7344C11.2655 33.6768 11.0603 33.6821 10.8717 33.7495C10.6831 33.817 10.5211 33.9431 10.4094 34.1094C9.29375 35.7688 6.89375 36.275 5.5625 36.4344V33.6875ZM22.4375 41.1875C22.4348 43.1758 21.6437 45.0819 20.2378 46.4878C18.8319 47.8937 16.9258 48.6848 14.9375 48.6875H13.0625C11.0742 48.6848 9.16814 47.8937 7.76221 46.4878C6.35628 45.0819 5.56523 43.1758 5.5625 41.1875V38.3187C7.22035 38.1831 8.8245 37.6666 10.25 36.8094V39.3125C10.2506 39.5412 10.3349 39.7618 10.4868 39.9327C10.6387 40.1037 10.8479 40.2132 11.075 40.2406C11.4579 40.2821 11.843 40.3008 12.2281 40.2969C16.0315 40.3139 19.6926 38.8515 22.4375 36.2188V41.1875ZM24.3125 39.3125V37.4375C24.4376 37.4364 24.5616 37.4617 24.6763 37.5118C24.791 37.5619 24.8939 37.6356 24.9781 37.7281C25.0659 37.8112 25.1354 37.9116 25.1822 38.0229C25.229 38.1343 25.2521 38.2542 25.25 38.375C25.25 38.6236 25.1512 38.8621 24.9754 39.0379C24.7996 39.2137 24.5611 39.3125 24.3125 39.3125Z" fill="white"/>
<path d="M33.6875 34.625H31.8125C31.5639 34.625 31.3254 34.7238 31.1496 34.8996C30.9738 35.0754 30.875 35.3139 30.875 35.5625C30.875 35.8111 30.9738 36.0496 31.1496 36.2254C31.3254 36.4012 31.5639 36.5 31.8125 36.5H33.6875C33.9361 36.5 34.1746 36.4012 34.3504 36.2254C34.5262 36.0496 34.625 35.8111 34.625 35.5625C34.625 35.3139 34.5262 35.0754 34.3504 34.8996C34.1746 34.7238 33.9361 34.625 33.6875 34.625Z" fill="white"/>
<path d="M52.4375 34.625H37.4375C37.1889 34.625 36.9504 34.7238 36.7746 34.8996C36.5988 35.0754 36.5 35.3139 36.5 35.5625C36.5 35.8111 36.5988 36.0496 36.7746 36.2254C36.9504 36.4012 37.1889 36.5 37.4375 36.5H52.4375C52.6861 36.5 52.9246 36.4012 53.1004 36.2254C53.2762 36.0496 53.375 35.8111 53.375 35.5625C53.375 35.3139 53.2762 35.0754 53.1004 34.8996C52.9246 34.7238 52.6861 34.625 52.4375 34.625Z" fill="white"/>
<path d="M33.6875 40.25H31.8125C31.5639 40.25 31.3254 40.3488 31.1496 40.5246C30.9738 40.7004 30.875 40.9389 30.875 41.1875C30.875 41.4361 30.9738 41.6746 31.1496 41.8504C31.3254 42.0262 31.5639 42.125 31.8125 42.125H33.6875C33.9361 42.125 34.1746 42.0262 34.3504 41.8504C34.5262 41.6746 34.625 41.4361 34.625 41.1875C34.625 40.9389 34.5262 40.7004 34.3504 40.5246C34.1746 40.3488 33.9361 40.25 33.6875 40.25Z" fill="white"/>
<path d="M52.4375 40.25H37.4375C37.1889 40.25 36.9504 40.3488 36.7746 40.5246C36.5988 40.7004 36.5 40.9389 36.5 41.1875C36.5 41.4361 36.5988 41.6746 36.7746 41.8504C36.9504 42.0262 37.1889 42.125 37.4375 42.125H52.4375C52.6861 42.125 52.9246 42.0262 53.1004 41.8504C53.2762 41.6746 53.375 41.4361 53.375 41.1875C53.375 40.9389 53.2762 40.7004 53.1004 40.5246C52.9246 40.3488 52.6861 40.25 52.4375 40.25Z" fill="white"/>
<path d="M33.6875 45.875H31.8125C31.5639 45.875 31.3254 45.9738 31.1496 46.1496C30.9738 46.3254 30.875 46.5639 30.875 46.8125C30.875 47.0611 30.9738 47.2996 31.1496 47.4754C31.3254 47.6512 31.5639 47.75 31.8125 47.75H33.6875C33.9361 47.75 34.1746 47.6512 34.3504 47.4754C34.5262 47.2996 34.625 47.0611 34.625 46.8125C34.625 46.5639 34.5262 46.3254 34.3504 46.1496C34.1746 45.9738 33.9361 45.875 33.6875 45.875Z" fill="white"/>
<path d="M52.4375 45.875H37.4375C37.1889 45.875 36.9504 45.9738 36.7746 46.1496C36.5988 46.3254 36.5 46.5639 36.5 46.8125C36.5 47.0611 36.5988 47.2996 36.7746 47.4754C36.9504 47.6512 37.1889 47.75 37.4375 47.75H52.4375C52.6861 47.75 52.9246 47.6512 53.1004 47.4754C53.2762 47.2996 53.375 47.0611 53.375 46.8125C53.375 46.5639 53.2762 46.3254 53.1004 46.1496C52.9246 45.9738 52.6861 45.875 52.4375 45.875Z" fill="white"/>
<path d="M33.6875 51.5H31.8125C31.5639 51.5 31.3254 51.5988 31.1496 51.7746C30.9738 51.9504 30.875 52.1889 30.875 52.4375C30.875 52.6861 30.9738 52.9246 31.1496 53.1004C31.3254 53.2762 31.5639 53.375 31.8125 53.375H33.6875C33.9361 53.375 34.1746 53.2762 34.3504 53.1004C34.5262 52.9246 34.625 52.6861 34.625 52.4375C34.625 52.1889 34.5262 51.9504 34.3504 51.7746C34.1746 51.5988 33.9361 51.5 33.6875 51.5Z" fill="white"/>
<path d="M52.4375 51.5H37.4375C37.1889 51.5 36.9504 51.5988 36.7746 51.7746C36.5988 51.9504 36.5 52.1889 36.5 52.4375C36.5 52.6861 36.5988 52.9246 36.7746 53.1004C36.9504 53.2762 37.1889 53.375 37.4375 53.375H52.4375C52.6861 53.375 52.9246 53.2762 53.1004 53.1004C53.2762 52.9246 53.375 52.6861 53.375 52.4375C53.375 52.1889 53.2762 51.9504 53.1004 51.7746C52.9246 51.5988 52.6861 51.5 52.4375 51.5Z" fill="white"/>
<path d="M1.8125 2.75H3.6875C3.93614 2.75 4.1746 2.65123 4.35041 2.47541C4.52623 2.2996 4.625 2.06114 4.625 1.8125C4.625 1.56386 4.52623 1.3254 4.35041 1.14959C4.1746 0.973772 3.93614 0.875 3.6875 0.875H1.8125C1.56386 0.875 1.3254 0.973772 1.14959 1.14959C0.973772 1.3254 0.875 1.56386 0.875 1.8125C0.875 2.06114 0.973772 2.2996 1.14959 2.47541C1.3254 2.65123 1.56386 2.75 1.8125 2.75Z" fill="white"/>
<path d="M7.4375 2.75H13.0625C13.3111 2.75 13.5496 2.65123 13.7254 2.47541C13.9012 2.2996 14 2.06114 14 1.8125C14 1.56386 13.9012 1.3254 13.7254 1.14959C13.5496 0.973772 13.3111 0.875 13.0625 0.875H7.4375C7.18886 0.875 6.9504 0.973772 6.77459 1.14959C6.59877 1.3254 6.5 1.56386 6.5 1.8125C6.5 2.06114 6.59877 2.2996 6.77459 2.47541C6.9504 2.65123 7.18886 2.75 7.4375 2.75Z" fill="white"/>
<path d="M1.8125 8.375H3.6875C3.93614 8.375 4.1746 8.27623 4.35041 8.10041C4.52623 7.9246 4.625 7.68614 4.625 7.4375C4.625 7.18886 4.52623 6.9504 4.35041 6.77459C4.1746 6.59877 3.93614 6.5 3.6875 6.5H1.8125C1.56386 6.5 1.3254 6.59877 1.14959 6.77459C0.973772 6.9504 0.875 7.18886 0.875 7.4375C0.875 7.68614 0.973772 7.9246 1.14959 8.10041C1.3254 8.27623 1.56386 8.375 1.8125 8.375Z" fill="white"/>
<path d="M7.4375 8.375H13.0625C13.3111 8.375 13.5496 8.27623 13.7254 8.10041C13.9012 7.9246 14 7.68614 14 7.4375C14 7.18886 13.9012 6.9504 13.7254 6.77459C13.5496 6.59877 13.3111 6.5 13.0625 6.5H7.4375C7.18886 6.5 6.9504 6.59877 6.77459 6.77459C6.59877 6.9504 6.5 7.18886 6.5 7.4375C6.5 7.68614 6.59877 7.9246 6.77459 8.10041C6.9504 8.27623 7.18886 8.375 7.4375 8.375Z" fill="white"/>
<path d="M1.8125 14H3.6875C3.93614 14 4.1746 13.9012 4.35041 13.7254C4.52623 13.5496 4.625 13.3111 4.625 13.0625C4.625 12.8139 4.52623 12.5754 4.35041 12.3996C4.1746 12.2238 3.93614 12.125 3.6875 12.125H1.8125C1.56386 12.125 1.3254 12.2238 1.14959 12.3996C0.973772 12.5754 0.875 12.8139 0.875 13.0625C0.875 13.3111 0.973772 13.5496 1.14959 13.7254C1.3254 13.9012 1.56386 14 1.8125 14Z" fill="white"/>
<path d="M7.4375 14H13.0625C13.3111 14 13.5496 13.9012 13.7254 13.7254C13.9012 13.5496 14 13.3111 14 13.0625C14 12.8139 13.9012 12.5754 13.7254 12.3996C13.5496 12.2238 13.3111 12.125 13.0625 12.125H7.4375C7.18886 12.125 6.9504 12.2238 6.77459 12.3996C6.59877 12.5754 6.5 12.8139 6.5 13.0625C6.5 13.3111 6.59877 13.5496 6.77459 13.7254C6.9504 13.9012 7.18886 14 7.4375 14Z" fill="white"/>
<path d="M1.8125 19.625H3.6875C3.93614 19.625 4.1746 19.5262 4.35041 19.3504C4.52623 19.1746 4.625 18.9361 4.625 18.6875C4.625 18.4389 4.52623 18.2004 4.35041 18.0246C4.1746 17.8488 3.93614 17.75 3.6875 17.75H1.8125C1.56386 17.75 1.3254 17.8488 1.14959 18.0246C0.973772 18.2004 0.875 18.4389 0.875 18.6875C0.875 18.9361 0.973772 19.1746 1.14959 19.3504C1.3254 19.5262 1.56386 19.625 1.8125 19.625Z" fill="white"/>
<path d="M7.4375 19.625H13.0625C13.3111 19.625 13.5496 19.5262 13.7254 19.3504C13.9012 19.1746 14 18.9361 14 18.6875C14 18.4389 13.9012 18.2004 13.7254 18.0246C13.5496 17.8488 13.3111 17.75 13.0625 17.75H7.4375C7.18886 17.75 6.9504 17.8488 6.77459 18.0246C6.59877 18.2004 6.5 18.4389 6.5 18.6875C6.5 18.9361 6.59877 19.1746 6.77459 19.3504C6.9504 19.5262 7.18886 19.625 7.4375 19.625Z" fill="white"/>
<path d="M52.4377 17.075V13.025C52.4304 12.8583 52.3788 12.6966 52.2882 12.5565C52.1975 12.4164 52.0712 12.303 51.9221 12.2281L38.7971 5.66562C38.6672 5.59635 38.5224 5.56012 38.3752 5.56012C38.228 5.56012 38.0832 5.59635 37.9533 5.66562L24.8283 12.2281C24.6789 12.304 24.5525 12.4187 24.4624 12.56C24.3723 12.7014 24.3217 12.8643 24.316 13.0318C24.3102 13.1994 24.3495 13.3654 24.4297 13.5126C24.51 13.6598 24.6282 13.7828 24.7721 13.8687L29.0002 16.4094V17.75C29.0002 20.0469 35.9471 20.5625 38.3752 20.5625C40.8033 20.5625 47.7502 20.0469 47.7502 17.75V16.4094L50.5627 14.7219V17.075C50.2052 17.2814 49.9259 17.5999 49.7679 17.9813C49.61 18.3626 49.5823 18.7854 49.6891 19.1841C49.7959 19.5828 50.0313 19.9351 50.3588 20.1863C50.6862 20.4376 51.0874 20.5738 51.5002 20.5738C51.9129 20.5738 52.3142 20.4376 52.6416 20.1863C52.9691 19.9351 53.2045 19.5828 53.3113 19.1841C53.4181 18.7854 53.3904 18.3626 53.2325 17.9813C53.0745 17.5999 52.7951 17.2814 52.4377 17.075ZM38.3752 18.6875C36.2148 18.7102 34.0611 18.4421 31.9721 17.8906C34.0118 17.1026 36.1899 16.7359 38.3752 16.8125C40.5605 16.7359 42.7386 17.1026 44.7783 17.8906C42.6893 18.4421 40.5356 18.7102 38.3752 18.6875ZM45.8752 16.3344C43.5037 15.3384 40.9463 14.8621 38.3752 14.9375C35.8041 14.8621 33.2467 15.3384 30.8752 16.3344V14.9375C30.8752 14.4594 33.4533 13.0625 38.3752 13.0625C43.2971 13.0625 45.8752 14.4594 45.8752 14.9375V16.3344ZM47.6283 14.2906C46.8877 12.1719 42.4908 11.1875 38.3752 11.1875C34.2596 11.1875 29.8627 12.1719 29.1221 14.2906L27.2002 13.1375L38.3752 7.54999L49.5502 13.1375L47.6283 14.2906Z" fill="white"/>
</svg>
