<svg width="58" height="58" viewBox="0 0 58 58" fill="none" xmlns="http://www.w3.org/2000/svg">
<path d="M54.7437 14.1031L29.4312 0.978123C29.2979 0.909082 29.15 0.873047 28.9999 0.873047C28.8498 0.873047 28.7019 0.909082 28.5687 0.978123L3.25617 14.1031C3.10426 14.181 2.97668 14.2992 2.88739 14.4447C2.79811 14.5902 2.75055 14.7574 2.74992 14.9281V23.2062L0.949921 28.0156C0.789577 28.441 0.734956 28.899 0.790756 29.3502C0.846556 29.8013 1.01111 30.2322 1.27026 30.6057C1.52941 30.9792 1.8754 31.2842 2.27849 31.4944C2.68158 31.7046 3.12969 31.8138 3.5843 31.8125H3.79055C4.24515 31.8138 4.69327 31.7046 5.09635 31.4944C5.49944 31.2842 5.84544 30.9792 6.10459 30.6057C6.36374 30.2322 6.52829 29.8013 6.58409 29.3502C6.63989 28.899 6.58527 28.441 6.42492 28.0156L4.62492 23.2062V16.5031L14.9374 22.0625V22.4375C14.9374 23.9 17.478 24.8562 20.5624 25.4375V31.8125C20.5624 32.5584 20.8587 33.2738 21.3862 33.8012C21.9136 34.3287 22.629 34.625 23.3749 34.625C24.1202 34.6228 24.8342 34.3257 25.3612 33.7988C25.8882 33.2718 26.1852 32.5577 26.1874 31.8125V30.875C26.1863 30.7498 26.2116 30.6259 26.2617 30.5112C26.3118 30.3965 26.3855 30.2936 26.478 30.2094C26.5611 30.1216 26.6615 30.0521 26.7729 30.0053C26.8842 29.9585 27.0041 29.9354 27.1249 29.9375C27.3736 29.9375 27.612 30.0363 27.7878 30.2121C27.9637 30.3879 28.0624 30.6264 28.0624 30.875V36.5H11.1874C10.4422 36.5022 9.72811 36.7993 9.20114 37.3262C8.67418 37.8532 8.37715 38.5673 8.37492 39.3125V54.3125C8.37715 55.0577 8.67418 55.7718 9.20114 56.2988C9.72811 56.8257 10.4422 57.1228 11.1874 57.125H46.8124C47.5577 57.1228 48.2717 56.8257 48.7987 56.2988C49.3257 55.7718 49.6227 55.0577 49.6249 54.3125V39.3125C49.6227 38.5673 49.3257 37.8532 48.7987 37.3262C48.2717 36.7993 47.5577 36.5022 46.8124 36.5H29.9374V30.875C29.9352 30.1298 29.6382 29.4157 29.1112 28.8887C28.5842 28.3618 27.8702 28.0647 27.1249 28.0625C26.379 28.0625 25.6636 28.3588 25.1362 28.8863C24.6087 29.4137 24.3124 30.1291 24.3124 30.875V31.8125C24.3124 32.0611 24.2137 32.2996 24.0378 32.4754C23.862 32.6512 23.6236 32.75 23.3749 32.75C23.2498 32.7511 23.1258 32.7258 23.0111 32.6757C22.8964 32.6256 22.7936 32.5519 22.7093 32.4594C22.6216 32.3763 22.5521 32.2759 22.5053 32.1646C22.4584 32.0532 22.4353 31.9333 22.4374 31.8125V25.7375C24.6133 26.0253 26.8051 26.1756 28.9999 26.1875C33.5843 26.1875 43.0624 25.2687 43.0624 22.4375V22.0625L54.7531 15.7625C54.9038 15.6821 55.0297 15.5621 55.1171 15.4154C55.2046 15.2686 55.2504 15.1008 55.2494 14.93C55.2484 14.7592 55.2008 14.5919 55.1117 14.4461C55.0225 14.3004 54.8953 14.1818 54.7437 14.1031ZM4.6718 28.6719C4.72758 28.8129 4.74737 28.9656 4.72936 29.1162C4.71136 29.2668 4.65613 29.4105 4.56867 29.5344C4.48162 29.6599 4.36523 29.7622 4.22961 29.8324C4.094 29.9027 3.94327 29.9388 3.79055 29.9375H3.5843C3.43157 29.9388 3.28084 29.9027 3.14523 29.8324C3.00962 29.7622 2.89322 29.6599 2.80617 29.5344C2.71871 29.4105 2.66349 29.2668 2.64548 29.1162C2.62748 28.9656 2.64726 28.8129 2.70305 28.6719L3.68742 26.0469L4.6718 28.6719ZM40.2499 55.25H17.7499V44.9375C17.7499 44.6889 17.8487 44.4504 18.0245 44.2746C18.2003 44.0988 18.4388 44 18.6874 44H39.3124C39.5611 44 39.7995 44.0988 39.9753 44.2746C40.1512 44.4504 40.2499 44.6889 40.2499 44.9375V55.25ZM46.8124 38.375C47.0611 38.375 47.2995 38.4738 47.4753 38.6496C47.6512 38.8254 47.7499 39.0639 47.7499 39.3125V54.3125C47.7499 54.5611 47.6512 54.7996 47.4753 54.9754C47.2995 55.1512 47.0611 55.25 46.8124 55.25H42.1249V44.9375C42.1227 44.1923 41.8257 43.4782 41.2987 42.9512C40.7717 42.4243 40.0577 42.1272 39.3124 42.125H18.6874C17.9422 42.1272 17.2281 42.4243 16.7011 42.9512C16.1742 43.4782 15.8771 44.1923 15.8749 44.9375V55.25H11.1874C10.9388 55.25 10.7003 55.1512 10.5245 54.9754C10.3487 54.7996 10.2499 54.5611 10.2499 54.3125V39.3125C10.2499 39.0639 10.3487 38.8254 10.5245 38.6496C10.7003 38.4738 10.9388 38.375 11.1874 38.375H46.8124ZM28.9999 24.3125C22.4562 24.3125 17.7405 23.0187 16.8499 22.2781C17.1874 20.9281 21.7343 18.6875 28.9999 18.6875C36.2655 18.6875 40.8124 20.9281 41.1499 22.2781C40.2593 23.0187 35.5437 24.3125 28.9999 24.3125ZM41.1874 19.5687C38.6093 17.8062 33.753 16.8125 28.9999 16.8125C24.2468 16.8125 19.3905 17.8062 16.8124 19.5687V15.875C16.8124 14.7406 20.6843 13.0625 28.9999 13.0625C37.3155 13.0625 41.1874 14.7406 41.1874 15.875V19.5687ZM43.0624 19.9344V15.875C43.0624 11.525 32.2999 11.1875 28.9999 11.1875C25.6999 11.1875 14.9374 11.525 14.9374 15.875V19.9344L5.69367 14.9562L28.9999 2.87187L52.3062 14.9562L43.0624 19.9344Z" fill="white"/>
<path d="M54.3125 19.625C53.5673 19.6272 52.8532 19.9243 52.3262 20.4512C51.7993 20.9782 51.5022 21.6923 51.5 22.4375V48.6875C51.5001 48.7634 51.5096 48.8389 51.5281 48.9125L53.4031 56.4125C53.4539 56.6152 53.571 56.7951 53.7358 56.9237C53.9005 57.0523 54.1035 57.1221 54.3125 57.1221C54.5215 57.1221 54.7245 57.0523 54.8892 56.9237C55.054 56.7951 55.1711 56.6152 55.2219 56.4125L57.0969 48.9125C57.1154 48.8389 57.1249 48.7634 57.125 48.6875V22.4375C57.1228 21.6923 56.8257 20.9782 56.2988 20.4512C55.7718 19.9243 55.0577 19.6272 54.3125 19.625ZM55.25 48.575L54.3125 52.325L53.375 48.575V22.4375C53.375 22.1889 53.4738 21.9504 53.6496 21.7746C53.8254 21.5988 54.0639 21.5 54.3125 21.5C54.5611 21.5 54.7996 21.5988 54.9754 21.7746C55.1512 21.9504 55.25 22.1889 55.25 22.4375V48.575Z" fill="white"/>
<path d="M20.5625 47.75H22.4375C22.6861 47.75 22.9246 47.6512 23.1004 47.4754C23.2762 47.2996 23.375 47.0611 23.375 46.8125C23.375 46.5639 23.2762 46.3254 23.1004 46.1496C22.9246 45.9738 22.6861 45.875 22.4375 45.875H20.5625C20.3139 45.875 20.0754 45.9738 19.8996 46.1496C19.7238 46.3254 19.625 46.5639 19.625 46.8125C19.625 47.0611 19.7238 47.2996 19.8996 47.4754C20.0754 47.6512 20.3139 47.75 20.5625 47.75Z" fill="white"/>
<path d="M37.4375 45.875H26.1875C25.9389 45.875 25.7004 45.9738 25.5246 46.1496C25.3488 46.3254 25.25 46.5639 25.25 46.8125C25.25 47.0611 25.3488 47.2996 25.5246 47.4754C25.7004 47.6512 25.9389 47.75 26.1875 47.75H37.4375C37.6861 47.75 37.9246 47.6512 38.1004 47.4754C38.2762 47.2996 38.375 47.0611 38.375 46.8125C38.375 46.5639 38.2762 46.3254 38.1004 46.1496C37.9246 45.9738 37.6861 45.875 37.4375 45.875Z" fill="white"/>
<path d="M37.4375 49.625H20.5625C20.3139 49.625 20.0754 49.7238 19.8996 49.8996C19.7238 50.0754 19.625 50.3139 19.625 50.5625C19.625 50.8111 19.7238 51.0496 19.8996 51.2254C20.0754 51.4012 20.3139 51.5 20.5625 51.5H37.4375C37.6861 51.5 37.9246 51.4012 38.1004 51.2254C38.2762 51.0496 38.375 50.8111 38.375 50.5625C38.375 50.3139 38.2762 50.0754 38.1004 49.8996C37.9246 49.7238 37.6861 49.625 37.4375 49.625Z" fill="white"/>
</svg>
