<svg width="58" height="58" viewBox="0 0 58 58" fill="none" xmlns="http://www.w3.org/2000/svg">
<path d="M54.3125 0.875H3.6875C2.94226 0.877226 2.22819 1.17426 1.70122 1.70122C1.17426 2.22819 0.877226 2.94226 0.875 3.6875V48.6875C0.877226 49.4327 1.17426 50.1468 1.70122 50.6738C2.22819 51.2007 2.94226 51.4978 3.6875 51.5H21.6219L18.8469 55.6719C18.7502 55.8108 18.6945 55.9742 18.6862 56.1433C18.678 56.3124 18.7174 56.4804 18.8 56.6281C18.8784 56.7789 18.9969 56.9051 19.1425 56.9928C19.2881 57.0804 19.4551 57.1262 19.625 57.125H38.375C38.5449 57.1262 38.7119 57.0804 38.8575 56.9928C39.0031 56.9051 39.1216 56.7789 39.2 56.6281C39.2826 56.4804 39.322 56.3124 39.3138 56.1433C39.3055 55.9742 39.2498 55.8108 39.1531 55.6719L36.3781 51.5H54.3125C55.0577 51.4978 55.7718 51.2007 56.2988 50.6738C56.8257 50.1468 57.1228 49.4327 57.125 48.6875V3.6875C57.1228 2.94226 56.8257 2.22819 56.2988 1.70122C55.7718 1.17426 55.0577 0.877226 54.3125 0.875ZM36.6219 55.25H21.3781L23.8813 51.5H34.1187L36.6219 55.25ZM55.25 48.6875C55.25 48.9361 55.1512 49.1746 54.9754 49.3504C54.7996 49.5262 54.5611 49.625 54.3125 49.625H3.6875C3.43886 49.625 3.2004 49.5262 3.02459 49.3504C2.84877 49.1746 2.75 48.9361 2.75 48.6875V45.875H55.25V48.6875ZM55.25 44H2.75V3.6875C2.75 3.43886 2.84877 3.2004 3.02459 3.02459C3.2004 2.84877 3.43886 2.75 3.6875 2.75H54.3125C54.5611 2.75 54.7996 2.84877 54.9754 3.02459C55.1512 3.2004 55.25 3.43886 55.25 3.6875V44Z" fill="white"/>
<path d="M41.4312 10.3907L42.7625 9.06879L38.7875 5.08441L37.4563 6.41566L38.7875 7.73754L36.7906 9.72504L36.1344 9.06879C35.958 8.89133 35.7189 8.79032 35.4688 8.78754C35.3447 8.78805 35.222 8.81318 35.1078 8.86145C34.9935 8.90973 34.8899 8.9802 34.8031 9.06879L22.8687 20.9938C22.6976 21.1735 22.6005 21.4112 22.5969 21.6594C22.5987 21.908 22.6961 22.1463 22.8687 22.325L25.5219 24.9782C25.6996 25.1525 25.9386 25.2501 26.1875 25.2501C26.4364 25.2501 26.6754 25.1525 26.8531 24.9782L34.9625 16.8594C36.1264 17.6818 37.107 18.7369 37.842 19.9579C38.5771 21.1789 39.0507 22.5392 39.2328 23.9527C39.4149 25.3661 39.3017 26.802 38.9001 28.1695C38.4986 29.5369 37.8176 30.8061 36.9002 31.8967C35.9827 32.9874 34.8489 33.8756 33.5704 34.5054C32.2919 35.1351 30.8966 35.4926 29.4728 35.5552C28.049 35.6178 26.6277 35.3841 25.2989 34.869C23.9701 34.3538 22.7627 33.5685 21.7531 32.5625C23.6656 32.2157 25.25 31.3625 25.25 29.9375C25.25 28.0063 22.3344 27.125 19.625 27.125C16.9156 27.125 14 28.0063 14 29.9375C14 31.8219 16.7656 32.7032 19.4094 32.75C20.5798 34.2375 22.0782 35.4342 23.7875 36.2469C23.0925 36.6593 22.5164 37.245 22.1155 37.9466C21.7145 38.6483 21.5025 39.4419 21.5 40.25C21.5 40.4987 21.5988 40.7371 21.7746 40.913C21.9504 41.0888 22.1889 41.1875 22.4375 41.1875H35.5625C35.8111 41.1875 36.0496 41.0888 36.2254 40.913C36.4012 40.7371 36.5 40.4987 36.5 40.25C36.4982 39.4429 36.2875 38.6499 35.8882 37.9484C35.489 37.2469 34.9149 36.6607 34.2219 36.2469C36.1178 35.3515 37.7498 33.981 38.9596 32.2686C40.1694 30.5561 40.9157 28.5599 41.1261 26.4738C41.3365 24.3877 41.0038 22.2826 40.1604 20.3631C39.3169 18.4435 37.9914 16.7747 36.3125 15.5188L38.7875 13.0438C38.9621 12.8681 39.0601 12.6305 39.0601 12.3828C39.0601 12.1352 38.9621 11.8976 38.7875 11.7219L38.1219 11.0563L40.1094 9.06879L41.4312 10.3907ZM19.625 30.875C17.4219 30.875 16.1375 30.2469 15.8938 29.9375C16.1375 29.6282 17.4219 29 19.625 29C21.8281 29 23.1125 29.6282 23.3562 29.9375C23.1125 30.2469 21.8281 30.875 19.625 30.875ZM34.4656 39.3125H23.5344C23.73 38.765 24.0897 38.2912 24.5645 37.9556C25.0393 37.6201 25.6061 37.4391 26.1875 37.4375H31.8125C32.3939 37.4391 32.9607 37.6201 33.4355 37.9556C33.9103 38.2912 34.27 38.765 34.4656 39.3125ZM26.1875 22.9907L24.8656 21.6594L35.4688 11.0563L36.7906 12.3782L26.1875 22.9907Z" fill="white"/>
</svg>
