<svg width="58" height="58" viewBox="0 0 58 58" fill="none" xmlns="http://www.w3.org/2000/svg">
<path d="M53.375 19.625C52.3804 19.625 51.4266 20.0201 50.7234 20.7234C50.0201 21.4266 49.625 22.3804 49.625 23.375V48.6875C49.6246 48.7993 49.6437 48.9103 49.6813 49.0156L52.4938 56.5156C52.5594 56.6966 52.6793 56.853 52.8369 56.9635C52.9946 57.074 53.1825 57.1333 53.375 57.1333C53.5675 57.1333 53.7554 57.074 53.9131 56.9635C54.0708 56.853 54.1906 56.6966 54.2563 56.5156L57.0688 49.0156C57.1064 48.9103 57.1254 48.7993 57.125 48.6875V23.375C57.125 22.3804 56.7299 21.4266 56.0267 20.7234C55.3234 20.0201 54.3696 19.625 53.375 19.625ZM53.375 53.5156L51.9125 49.625H54.8375L53.375 53.5156ZM55.25 47.75H51.5V27.125H55.25V47.75ZM55.25 25.25H51.5V23.375C51.5 22.8777 51.6976 22.4008 52.0492 22.0492C52.4008 21.6975 52.8777 21.5 53.375 21.5C53.8723 21.5 54.3492 21.6975 54.7008 22.0492C55.0525 22.4008 55.25 22.8777 55.25 23.375V25.25Z" fill="white"/>
<path d="M29 53.375C30.0355 53.375 30.875 52.5355 30.875 51.5C30.875 50.4645 30.0355 49.625 29 49.625C27.9645 49.625 27.125 50.4645 27.125 51.5C27.125 52.5355 27.9645 53.375 29 53.375Z" fill="white"/>
<path d="M29 39.3125C30.0355 39.3125 30.875 38.473 30.875 37.4375C30.875 36.402 30.0355 35.5625 29 35.5625C27.9645 35.5625 27.125 36.402 27.125 37.4375C27.125 38.473 27.9645 39.3125 29 39.3125Z" fill="white"/>
<path d="M29.0005 31.8125C28.1103 31.8141 27.233 32.0261 26.4404 32.4313C25.6477 32.8365 24.9621 33.4234 24.4395 34.1441C24.3674 34.2438 24.3156 34.3569 24.2871 34.4767C24.2587 34.5965 24.2541 34.7207 24.2736 34.8423C24.2931 34.9638 24.3364 35.0804 24.401 35.1852C24.4656 35.29 24.5502 35.3811 24.65 35.4533C24.7498 35.5254 24.8628 35.5772 24.9826 35.6057C25.1024 35.6342 25.2266 35.6387 25.3482 35.6192C25.4698 35.5997 25.5863 35.5564 25.6911 35.4918C25.796 35.4272 25.8871 35.3426 25.9592 35.2428C26.3067 34.7613 26.7636 34.3692 27.2922 34.0988C27.8209 33.8284 28.4062 33.6874 29 33.6874C29.5938 33.6874 30.1791 33.8284 30.7077 34.0988C31.2364 34.3692 31.6933 34.7613 32.0408 35.2428C32.1117 35.3456 32.2024 35.4332 32.3076 35.5005C32.4129 35.5677 32.5305 35.6133 32.6536 35.6344C32.7766 35.6556 32.9027 35.652 33.0244 35.6237C33.146 35.5955 33.2608 35.5433 33.362 35.4701C33.4632 35.3969 33.5487 35.3042 33.6136 35.1975C33.6785 35.0907 33.7213 34.9721 33.7397 34.8486C33.7581 34.7251 33.7517 34.5991 33.7207 34.4782C33.6898 34.3572 33.635 34.2436 33.5595 34.1441C33.0372 33.4235 32.352 32.8367 31.5596 32.4315C30.7673 32.0263 29.8904 31.8142 29.0005 31.8125Z" fill="white"/>
<path d="M28.9999 28.0625C26.6103 28.0587 24.3102 28.9714 22.5733 30.6125C22.4796 30.6958 22.4036 30.7971 22.3497 30.9103C22.2958 31.0236 22.2652 31.1465 22.2597 31.2717C22.2542 31.397 22.2738 31.5221 22.3175 31.6396C22.3612 31.7572 22.428 31.8648 22.514 31.956C22.6 32.0473 22.7034 32.1204 22.8181 32.171C22.9329 32.2215 23.0566 32.2486 23.182 32.2505C23.3073 32.2524 23.4318 32.2292 23.5481 32.1821C23.6643 32.1351 23.7699 32.0652 23.8586 31.9766C25.2517 30.6651 27.0932 29.9356 29.0064 29.9374C30.9197 29.9391 32.7599 30.672 34.1505 31.986C34.3313 32.1568 34.5725 32.2488 34.8211 32.2417C35.0697 32.2347 35.3053 32.1292 35.4761 31.9485C35.647 31.7677 35.739 31.5265 35.7319 31.2779C35.7249 31.0293 35.6194 30.7936 35.4386 30.6228C33.7001 28.9753 31.3951 28.0587 28.9999 28.0625Z" fill="white"/>
<path d="M54.6968 12.2094L29.3843 0.959364C29.2638 0.903783 29.1326 0.875 28.9999 0.875C28.8672 0.875 28.7361 0.903783 28.6155 0.959364L3.30305 12.2094C3.1448 12.2814 3.00946 12.3956 2.91188 12.5395C2.8143 12.6833 2.75826 12.8513 2.74992 13.025V21.3312L0.949921 26.1406C0.789577 26.566 0.734956 27.024 0.790756 27.4751C0.846556 27.9263 1.01111 28.3572 1.27026 28.7307C1.52941 29.1042 1.8754 29.4092 2.27849 29.6194C2.68158 29.8296 3.12969 29.9388 3.5843 29.9375H3.79055C4.24515 29.9388 4.69327 29.8296 5.09635 29.6194C5.49944 29.4092 5.84543 29.1042 6.10459 28.7307C6.36374 28.3572 6.52829 27.9263 6.58409 27.4751C6.63989 27.024 6.58527 26.566 6.42492 26.1406L4.62492 21.3312V14.6281L14.9374 20.1875V20.5625C14.9374 21.4812 15.8374 22.2125 17.7499 22.8406V54.3125C17.7521 55.0577 18.0492 55.7718 18.5761 56.2988C19.1031 56.8257 19.8172 57.1228 20.5624 57.125H37.4374C38.1827 57.1228 38.8967 56.8257 39.4237 56.2988C39.9507 55.7718 40.2477 55.0577 40.2499 54.3125V22.8406C42.1624 22.2125 43.0624 21.4812 43.0624 20.5625V20.1875L54.753 13.8875C54.9066 13.8046 55.034 13.6806 55.1209 13.5293C55.2078 13.378 55.2507 13.2054 55.2449 13.031C55.239 12.8566 55.1846 12.6873 55.0878 12.5422C54.991 12.397 54.8556 12.2817 54.6968 12.2094ZM4.6718 26.7969C4.72758 26.9379 4.74737 27.0906 4.72936 27.2412C4.71136 27.3917 4.65613 27.5355 4.56867 27.6594C4.48162 27.7849 4.36522 27.8872 4.22961 27.9574C4.094 28.0277 3.94327 28.0638 3.79055 28.0625H3.5843C3.43157 28.0638 3.28084 28.0277 3.14523 27.9574C3.00962 27.8872 2.89322 27.7849 2.80617 27.6594C2.71871 27.5355 2.66349 27.3917 2.64548 27.2412C2.62748 27.0906 2.64726 26.9379 2.70305 26.7969L3.68742 24.1719L4.6718 26.7969ZM38.3749 54.3125C38.3749 54.5611 38.2761 54.7996 38.1003 54.9754C37.9245 55.1512 37.6861 55.25 37.4374 55.25H20.5624C20.3138 55.25 20.0753 55.1512 19.8995 54.9754C19.7237 54.7996 19.6249 54.5611 19.6249 54.3125V22.4375C19.6249 22.1888 19.7237 21.9504 19.8995 21.7746C20.0753 21.5988 20.3138 21.5 20.5624 21.5H37.4374C37.6861 21.5 37.9245 21.5988 38.1003 21.7746C38.2761 21.9504 38.3749 22.1888 38.3749 22.4375V54.3125ZM39.8468 21.0031C39.5987 20.5846 39.2463 20.2377 38.824 19.9961C38.4017 19.7546 37.9239 19.6267 37.4374 19.625H20.5624C20.0759 19.6267 19.5982 19.7546 19.1759 19.9961C18.7536 20.2377 18.4012 20.5846 18.153 21.0031C17.6922 20.8622 17.2535 20.657 16.8499 20.3937C17.2062 19.0437 21.7437 16.8125 28.9999 16.8125C36.2562 16.8125 40.7937 19.0437 41.1499 20.3937C40.7463 20.657 40.3076 20.8622 39.8468 21.0031ZM41.1874 17.6937C38.6093 15.9312 33.753 14.9375 28.9999 14.9375C24.2468 14.9375 19.3905 15.9312 16.8124 17.6937V14C16.8124 12.8656 20.6843 11.1875 28.9999 11.1875C37.3155 11.1875 41.1874 12.8656 41.1874 14V17.6937ZM43.0624 18.0594V14C43.0624 9.64999 32.2999 9.31249 28.9999 9.31249C25.6999 9.31249 14.9374 9.64999 14.9374 14V18.0594L5.81555 13.1469L28.9999 2.83436L52.1843 13.1469L43.0624 18.0594Z" fill="white"/>
<path d="M3.6875 33.6875H1.8125C1.56386 33.6875 1.3254 33.7863 1.14959 33.9621C0.973772 34.1379 0.875 34.3764 0.875 34.625C0.875 34.8736 0.973772 35.1121 1.14959 35.2879C1.3254 35.4637 1.56386 35.5625 1.8125 35.5625H3.6875C3.93614 35.5625 4.1746 35.4637 4.35041 35.2879C4.52623 35.1121 4.625 34.8736 4.625 34.625C4.625 34.3764 4.52623 34.1379 4.35041 33.9621C4.1746 33.7863 3.93614 33.6875 3.6875 33.6875Z" fill="white"/>
<path d="M13.0625 33.6875H7.4375C7.18886 33.6875 6.9504 33.7863 6.77459 33.9621C6.59877 34.1379 6.5 34.3764 6.5 34.625C6.5 34.8736 6.59877 35.1121 6.77459 35.2879C6.9504 35.4637 7.18886 35.5625 7.4375 35.5625H13.0625C13.3111 35.5625 13.5496 35.4637 13.7254 35.2879C13.9012 35.1121 14 34.8736 14 34.625C14 34.3764 13.9012 34.1379 13.7254 33.9621C13.5496 33.7863 13.3111 33.6875 13.0625 33.6875Z" fill="white"/>
<path d="M3.6875 39.3125H1.8125C1.56386 39.3125 1.3254 39.4113 1.14959 39.5871C0.973772 39.7629 0.875 40.0014 0.875 40.25C0.875 40.4986 0.973772 40.7371 1.14959 40.9129C1.3254 41.0887 1.56386 41.1875 1.8125 41.1875H3.6875C3.93614 41.1875 4.1746 41.0887 4.35041 40.9129C4.52623 40.7371 4.625 40.4986 4.625 40.25C4.625 40.0014 4.52623 39.7629 4.35041 39.5871C4.1746 39.4113 3.93614 39.3125 3.6875 39.3125Z" fill="white"/>
<path d="M13.0625 39.3125H7.4375C7.18886 39.3125 6.9504 39.4113 6.77459 39.5871C6.59877 39.7629 6.5 40.0014 6.5 40.25C6.5 40.4986 6.59877 40.7371 6.77459 40.9129C6.9504 41.0887 7.18886 41.1875 7.4375 41.1875H13.0625C13.3111 41.1875 13.5496 41.0887 13.7254 40.9129C13.9012 40.7371 14 40.4986 14 40.25C14 40.0014 13.9012 39.7629 13.7254 39.5871C13.5496 39.4113 13.3111 39.3125 13.0625 39.3125Z" fill="white"/>
<path d="M3.6875 44.9375H1.8125C1.56386 44.9375 1.3254 45.0363 1.14959 45.2121C0.973772 45.3879 0.875 45.6264 0.875 45.875C0.875 46.1236 0.973772 46.3621 1.14959 46.5379C1.3254 46.7137 1.56386 46.8125 1.8125 46.8125H3.6875C3.93614 46.8125 4.1746 46.7137 4.35041 46.5379C4.52623 46.3621 4.625 46.1236 4.625 45.875C4.625 45.6264 4.52623 45.3879 4.35041 45.2121C4.1746 45.0363 3.93614 44.9375 3.6875 44.9375Z" fill="white"/>
<path d="M13.0625 44.9375H7.4375C7.18886 44.9375 6.9504 45.0363 6.77459 45.2121C6.59877 45.3879 6.5 45.6264 6.5 45.875C6.5 46.1236 6.59877 46.3621 6.77459 46.5379C6.9504 46.7137 7.18886 46.8125 7.4375 46.8125H13.0625C13.3111 46.8125 13.5496 46.7137 13.7254 46.5379C13.9012 46.3621 14 46.1236 14 45.875C14 45.6264 13.9012 45.3879 13.7254 45.2121C13.5496 45.0363 13.3111 44.9375 13.0625 44.9375Z" fill="white"/>
<path d="M3.6875 50.5625H1.8125C1.56386 50.5625 1.3254 50.6613 1.14959 50.8371C0.973772 51.0129 0.875 51.2514 0.875 51.5C0.875 51.7486 0.973772 51.9871 1.14959 52.1629C1.3254 52.3387 1.56386 52.4375 1.8125 52.4375H3.6875C3.93614 52.4375 4.1746 52.3387 4.35041 52.1629C4.52623 51.9871 4.625 51.7486 4.625 51.5C4.625 51.2514 4.52623 51.0129 4.35041 50.8371C4.1746 50.6613 3.93614 50.5625 3.6875 50.5625Z" fill="white"/>
<path d="M13.0625 50.5625H7.4375C7.18886 50.5625 6.9504 50.6613 6.77459 50.8371C6.59877 51.0129 6.5 51.2514 6.5 51.5C6.5 51.7486 6.59877 51.9871 6.77459 52.1629C6.9504 52.3387 7.18886 52.4375 7.4375 52.4375H13.0625C13.3111 52.4375 13.5496 52.3387 13.7254 52.1629C13.9012 51.9871 14 51.7486 14 51.5C14 51.2514 13.9012 51.0129 13.7254 50.8371C13.5496 50.6613 13.3111 50.5625 13.0625 50.5625Z" fill="white"/>
</svg>
