<svg width="58" height="49" viewBox="0 0 58 49" fill="none" xmlns="http://www.w3.org/2000/svg">
<path d="M28.4442 0.114121C27.9622 0.342607 27.9622 0.367088 27.9525 4.13712V7.66234L22.4388 9.99616C19.4024 11.2855 16.819 12.4116 16.7034 12.5095C16.5491 12.6238 16.4817 12.7706 16.4817 12.991C16.4817 13.4071 16.713 13.6846 17.1468 13.7988C17.4938 13.8886 17.5709 13.8641 18.8722 13.3174L20.241 12.738V13.7907V14.8352L19.1132 15.0065C18.4867 15.1045 17.6769 15.235 17.301 15.3003C16.9347 15.3656 15.9322 15.5288 15.084 15.6594C14.2357 15.7981 12.3946 16.0919 10.9872 16.3203C6.81335 16.9976 6.09039 17.1119 4.62521 17.3485C0.682693 17.9769 0.55738 18.0014 0.268199 18.2706C-0.107738 18.6297 -0.0884591 18.9561 0.326035 19.307C0.509183 19.462 0.750168 19.5844 0.88512 19.5844C1.00079 19.5844 1.76231 19.4784 2.55274 19.3478C3.35281 19.2172 4.18179 19.0867 4.41314 19.054L4.81799 18.9969V26.3085C4.81799 31.8003 4.84691 33.669 4.93367 33.824C5.18429 34.2892 4.95294 34.2729 12.9151 34.2729H20.241V34.7625C20.241 35.3419 20.3856 35.6356 20.7326 35.7907C21.1279 35.962 28.0297 35.962 28.4249 35.7907C29.0611 35.5051 29.0611 34.6727 28.4249 34.3871C28.2032 34.2973 27.567 34.2729 25.1571 34.2729H22.1689V23.1015V11.922L25.5427 10.4939L28.9165 9.0659L32.2903 10.4939L35.6641 11.922V15.8389C35.6641 20.0904 35.6641 20.0985 36.1942 20.3025C36.5123 20.4249 36.7437 20.4249 37.0618 20.3025C37.5341 20.123 37.5919 19.8945 37.5919 18.1564C37.5919 16.353 37.5148 16.4917 38.4306 16.6468C38.6812 16.6876 39.5005 16.8181 40.2428 16.9324C40.985 17.0548 42.1321 17.2343 42.7972 17.3485C44.0214 17.5444 47.0675 18.034 49.4484 18.4094C51.251 18.6868 51.0871 18.6052 51.0871 19.2254C51.0871 19.8292 51.251 20.1638 51.6173 20.3025C51.945 20.4331 52.1956 20.4249 52.5234 20.2862C52.8511 20.1393 53.015 19.8456 53.015 19.3723V18.9969L53.4295 19.054C53.6512 19.0867 54.4898 19.2172 55.2802 19.3478C56.0803 19.4784 56.8322 19.5844 56.9478 19.5844C57.0828 19.5844 57.3238 19.462 57.5069 19.307C57.9214 18.9561 57.9407 18.6297 57.5648 18.2706C57.2852 18.0014 57.2756 18.0014 53.4006 17.3812C52.5234 17.2425 51.2702 17.0384 50.6051 16.9324C49.94 16.8263 48.7929 16.6386 48.0507 16.5244C47.3085 16.4101 46.1421 16.2224 45.448 16.1082C44.7637 16.0021 43.7612 15.8389 43.231 15.7491C42.7008 15.6675 41.4188 15.4635 40.3874 15.3003C39.356 15.1371 38.3053 14.9657 38.0546 14.9249L37.5919 14.8352V13.7825V12.738L38.9318 13.3011C39.6644 13.6193 40.3584 13.8723 40.4645 13.8723C40.9754 13.8723 41.4477 13.4806 41.4477 13.0563C41.4477 12.5585 41.4091 12.5422 35.5291 10.0533L29.8804 7.66234V6.2751V4.89602H32.512C35.0857 4.89602 35.1628 4.88786 35.5773 4.70833C35.8087 4.60225 36.1364 4.35744 36.2906 4.16976L36.5798 3.81887V2.44795V1.07703L36.2906 0.726138C36.1364 0.538453 35.8087 0.293646 35.5773 0.187563C35.1532 -0.000122444 35.1243 -0.000122444 31.9143 -0.000122444C29.4081 0.00803779 28.6273 0.0325185 28.4442 0.114121ZM34.7001 2.44795V3.26397H32.2903H29.8804V2.44795V1.63192H32.2903H34.7001V2.44795ZM20.241 24.5622V32.6408H13.4934H6.74587V25.672C6.74587 19.103 6.75551 18.695 6.91938 18.6542C7.00614 18.6297 8.01827 18.4665 9.15572 18.2788C10.2932 18.0993 11.768 17.8626 12.4331 17.7484C13.0982 17.6423 14.2453 17.4546 14.9876 17.3404C16.607 17.0874 18.4963 16.7773 19.4217 16.6141C19.7976 16.5488 20.1254 16.4999 20.1736 16.4917C20.2121 16.4836 20.241 20.1149 20.241 24.5622Z" fill="white"/>
<path d="M12.4621 22.9383C10.7559 23.2158 9.09792 24.652 8.77018 26.1126C8.62559 26.741 8.64487 30.2988 8.78946 30.56C9.03045 31.0006 9.08828 31.0088 13.4935 31.0088C17.8987 31.0088 17.9565 31.0006 18.1975 30.56C18.3421 30.2988 18.3614 26.741 18.2168 26.1126C17.8794 24.6112 16.2311 23.2158 14.4574 22.9302C13.8694 22.8322 13.0404 22.8404 12.4621 22.9383ZM14.8334 24.7662C15.3925 25.0273 15.7973 25.3782 16.1154 25.8923C16.3178 26.2106 16.3371 26.3575 16.366 27.8018L16.4046 29.3767H13.5031H10.6017V27.965C10.6017 27.198 10.6499 26.4227 10.6981 26.2595C10.9294 25.5659 11.8355 24.7825 12.6645 24.5622C12.8284 24.5214 13.2718 24.4969 13.6477 24.5132C14.1779 24.5296 14.4382 24.5867 14.8334 24.7662Z" fill="white"/>
<path d="M46.4505 0.0733287C43.7322 0.399738 40.985 1.50137 39.0474 3.0355C38.257 3.67199 38.1606 4.09633 38.7197 4.53698C39.1535 4.87971 39.568 4.81443 40.3006 4.27585C41.9971 3.01917 43.4045 2.38268 45.5444 1.90122C46.4119 1.70538 46.6722 1.6809 48.1952 1.6809C49.7183 1.6809 49.9785 1.70538 50.8461 1.90122C52.8896 2.36636 54.2295 2.94573 55.7236 4.02288C56.7743 4.77363 56.996 4.85523 57.5358 4.61042C57.8732 4.46354 58.066 4.09633 57.9792 3.7536C57.7961 3.05998 55.1934 1.47689 53.0631 0.775109C51.569 0.277335 50.2581 0.0651685 48.5326 0.0325275C47.6843 0.0243673 46.7493 0.0406878 46.4505 0.0733287Z" fill="white"/>
<path d="M46.7783 3.34553C44.889 3.6393 43.337 4.25132 41.8719 5.28767C40.9947 5.90785 40.8597 6.36482 41.3995 6.82179C41.573 6.96868 41.7369 7.01764 42.0646 7.01764C42.4406 7.01764 42.5563 6.96868 43.0093 6.62595C43.9443 5.90785 44.7155 5.53247 45.9879 5.17342C46.7205 4.96942 46.9229 4.94494 48.1953 4.94494C49.4677 4.94494 49.6701 4.96942 50.4027 5.17342C51.6076 5.50799 52.7451 6.05473 53.3042 6.56882C53.844 7.0666 54.5959 7.17268 54.9911 6.80547C55.5405 6.3077 55.3766 5.88336 54.3934 5.20606C52.5427 3.93307 50.7883 3.37001 48.5327 3.30473C47.8483 3.28841 47.0578 3.30473 46.7783 3.34553Z" fill="white"/>
<path d="M47.2315 6.577C46.2097 6.74837 44.9855 7.27062 44.3204 7.81736C43.9251 8.13561 43.8577 8.24169 43.8577 8.50282C43.8577 8.72314 43.9348 8.87819 44.1276 9.04955C44.5517 9.44124 45.0048 9.41676 45.6699 8.96795C47.1736 7.96424 49.2364 7.94792 50.6631 8.93531C51.1932 9.31068 51.5499 9.41676 51.8873 9.31068C52.3307 9.16379 52.5331 8.92715 52.5331 8.53546C52.5331 8.21721 52.4849 8.14377 52.0704 7.81736C51.0679 7.01765 49.863 6.60964 48.4364 6.56884C47.9062 6.55252 47.3664 6.56068 47.2315 6.577Z" fill="white"/>
<path d="M47.3275 9.97184C46.3732 10.4043 45.9973 11.3836 46.4793 12.1588C46.9902 12.9666 48.1469 13.2849 49.0626 12.8769C50.0169 12.4444 50.3929 11.4652 49.9109 10.6899C49.4 9.88208 48.2433 9.56383 47.3275 9.97184Z" fill="white"/>
<path d="M28.0878 13.1379C27.2299 13.3664 26.3431 14.1416 26.1117 14.876C25.8515 15.692 26.2274 16.761 26.96 17.3078C27.5962 17.7811 28.0203 17.9116 28.9168 17.9116C29.6494 17.9116 29.794 17.8871 30.247 17.675C30.8254 17.4057 31.2206 17.0548 31.5387 16.5407C31.7219 16.2633 31.7604 16.0674 31.7604 15.5044C31.7604 14.9413 31.7219 14.7455 31.5387 14.468C30.9893 13.5949 30.1603 13.1297 29.071 13.0889C28.6951 13.0726 28.2517 13.0971 28.0878 13.1379ZM29.3891 14.8026C30.035 15.0882 30.0157 15.9695 29.3506 16.2225C28.4734 16.557 27.6251 15.8063 28.0878 15.1045C28.3384 14.721 28.8975 14.5904 29.3891 14.8026Z" fill="white"/>
<path d="M43.0672 20.4822C41.7756 20.678 40.4935 21.1839 39.385 21.9347C37.9487 22.9057 36.8402 24.6847 36.6667 26.2922L36.5992 26.9124L36.1558 26.9614C35.616 27.0267 34.8256 27.3939 34.4689 27.7529C33.9291 28.2915 33.7845 28.6342 33.7845 29.3768C33.7845 29.997 33.8134 30.1194 34.064 30.5029C34.2279 30.7396 34.4978 31.0415 34.6713 31.1721L34.9894 31.4087L34.3339 31.7106C33.5339 32.0942 32.2518 33.155 31.7891 33.8241C31.0566 34.9013 30.6421 36.5578 30.9698 37.1046C31.2204 37.5126 31.5096 37.5615 33.37 37.5207C34.7484 37.4881 35.1533 37.4473 35.7124 37.2922C36.792 37.0066 37.8716 36.4354 38.5753 35.7826L38.8452 35.546L39.25 35.8724C40.0212 36.4925 40.8791 36.9087 42.1322 37.2596C42.8648 37.4636 43.0672 37.4881 44.3396 37.4881C45.612 37.4881 45.8145 37.4636 46.5471 37.2596C47.7809 36.9169 48.5906 36.5252 49.4196 35.8805L49.8341 35.5541L50.2872 35.9295C51.1258 36.6149 51.7523 36.9332 52.8801 37.2596C53.5645 37.4636 53.8055 37.4881 55.3093 37.5207C57.1697 37.5615 57.4589 37.5126 57.7095 37.1046C58.0372 36.566 57.6613 34.9666 56.948 33.8813C56.5238 33.2366 55.1454 32.0942 54.3453 31.7106L53.6899 31.4087L54.008 31.1721C54.1815 31.0415 54.4514 30.7396 54.6152 30.5029C54.8659 30.1194 54.8948 29.997 54.8948 29.3768C54.8948 28.6342 54.7502 28.2915 54.2104 27.7529C53.8537 27.3939 53.0633 27.0267 52.5235 26.9614L52.0801 26.9124L52.0222 26.3167C51.8584 24.7255 50.7306 22.9057 49.2943 21.9347C47.8291 20.9473 46.3928 20.4822 44.6288 20.4414C44.0215 20.425 43.3179 20.4414 43.0672 20.4822ZM46.1904 22.3019C47.1158 22.5875 47.8387 22.9792 48.4749 23.5422C49.1111 24.1053 49.4871 24.6112 49.8052 25.3538C50.1426 26.1535 50.1908 26.1127 48.9184 26.1127H47.8195L47.405 25.4109C46.9905 24.701 46.7109 24.4807 46.2675 24.4807C45.9205 24.4807 45.5735 24.6928 44.7252 25.4109L43.9059 26.1127H41.284C39.0476 26.1127 38.6524 26.0964 38.6524 25.9903C38.6524 25.7863 39.0862 24.8479 39.3754 24.4317C40.1465 23.3138 41.6695 22.3998 43.2311 22.1142C43.9444 21.9755 45.4771 22.0734 46.1904 22.3019ZM46.3061 27.1572C46.441 27.3857 46.6531 27.5897 46.7977 27.6468C46.9423 27.704 47.511 27.7448 48.1954 27.7448C48.8316 27.7448 49.3521 27.7692 49.3521 27.7937C49.3521 27.8264 49.5256 28.5853 49.7473 29.4911C50.1908 31.319 50.1908 31.678 49.7955 32.6083C49.169 34.0608 47.8387 35.1624 46.0844 35.6765C45.1686 35.9458 43.5107 35.9458 42.5949 35.6765C40.8405 35.1624 39.5103 34.0608 38.8837 32.6083C38.4885 31.6698 38.4885 31.319 38.9319 29.4911C39.1536 28.5853 39.3272 27.8264 39.3272 27.7937C39.3272 27.7692 40.5032 27.7448 41.9298 27.7448C44.8602 27.7448 44.7831 27.7611 45.4964 27.1409C45.7277 26.9369 45.9591 26.7655 45.9976 26.7655C46.0362 26.7655 46.1808 26.9451 46.3061 27.1572ZM37.0041 28.6342C37.139 28.7077 37.1294 28.928 36.9077 29.7848C36.8306 30.0949 36.7631 30.1928 36.6281 30.1928C35.9148 30.1928 35.4521 29.5074 35.7991 28.977C36.0208 28.6342 36.657 28.4547 37.0041 28.6342ZM52.5235 28.675C53.1693 28.9606 53.1501 29.842 52.4849 30.0949C52.003 30.2826 51.8873 30.2255 51.7716 29.7848C51.5499 28.928 51.5403 28.7077 51.6752 28.6342C51.8777 28.5282 52.215 28.5445 52.5235 28.675ZM37.0137 33.0244C37.0812 33.1958 37.245 33.5549 37.38 33.816L37.6306 34.2974L37.0426 34.7707C36.4257 35.2603 35.5389 35.6684 34.7966 35.8152C34.5557 35.8642 34.0255 35.905 33.6014 35.905H32.8495L32.9073 35.6928C33.0423 35.244 33.5724 34.428 33.9869 34.0363C34.4978 33.5549 35.2304 33.1387 35.9534 32.902C36.7438 32.6491 36.8787 32.6654 37.0137 33.0244ZM52.697 32.8939C53.4489 33.1305 54.1718 33.5467 54.6924 34.0363C55.1068 34.428 55.637 35.244 55.772 35.6928L55.8298 35.905H55.0779C54.6538 35.905 54.1236 35.8642 53.8826 35.8152C53.1404 35.6684 52.2536 35.2603 51.6367 34.7707L51.0487 34.2974L51.2993 33.816C51.4342 33.5549 51.5981 33.1958 51.6656 33.0244C51.8005 32.6654 51.9162 32.6491 52.697 32.8939Z" fill="white"/>
<path d="M40.9561 30.3153C40.3874 30.5764 40.3488 31.4332 40.8501 32.3553C41.2549 33.0897 41.814 33.563 42.6815 33.9303C43.3756 34.2159 43.4623 34.2322 44.3395 34.2322C45.2167 34.2322 45.3035 34.2159 45.9975 33.9303C46.4506 33.7344 46.8747 33.4814 47.1253 33.2448C47.9157 32.5267 48.3881 31.2782 48.0989 30.6825C47.9736 30.4132 47.5687 30.1929 47.2313 30.1929C46.653 30.1929 46.3349 30.5356 46.2385 31.2455C46.1325 31.9963 45.2553 32.6409 44.3395 32.6409C43.4238 32.6409 42.5466 31.9963 42.4406 31.2455C42.3731 30.707 42.2189 30.4458 41.92 30.3153C41.5827 30.1602 41.2838 30.1684 40.9561 30.3153Z" fill="white"/>
<path d="M28.0875 21.2981C27.2585 21.5184 26.3524 22.3018 26.121 22.9954C25.9764 23.4443 25.9957 30.2825 26.1403 30.56C26.362 30.968 26.603 31.0088 28.9164 31.0088C31.2588 31.0088 31.4902 30.968 31.7022 30.5355C31.789 30.3723 31.8083 29.3196 31.789 26.6349C31.7601 23.0118 31.7601 22.971 31.5384 22.6282C30.9889 21.7551 30.1599 21.29 29.0707 21.2491C28.6947 21.2328 28.2513 21.2573 28.0875 21.2981ZM29.3888 22.9628C29.8611 23.175 29.8804 23.2892 29.8804 26.4391V29.3767H28.9164H27.9525V26.4146C27.9621 23.2566 27.9718 23.1831 28.4441 22.9628C28.7429 22.8241 29.061 22.8241 29.3888 22.9628Z" fill="white"/>
<path d="M6.27363 36.0185C5.83986 36.2225 5.79166 36.4183 5.78202 37.9035V39.2907L5.42536 39.4539C4.86628 39.7069 4.55782 39.9599 4.26864 40.4005L3.99873 40.8004H2.37932C0.615307 40.8004 0.326125 40.8575 0.114058 41.2492C-0.0305325 41.5185 -0.0305325 41.7143 0.114058 41.9836C0.326125 42.3753 0.615307 42.4324 2.37932 42.4324H3.99873L4.19152 42.7343C4.49034 43.2076 4.78916 43.4688 5.30005 43.7136L5.77238 43.9339L5.8013 45.0927C5.83022 46.2351 5.83986 46.2596 6.1194 46.6023C6.28327 46.79 6.60137 47.0348 6.83272 47.1409L7.25685 47.3286H14.7852H22.3136L22.5449 47.6958C22.8052 48.1201 23.2486 48.471 23.8366 48.7321C24.415 49.0014 25.7066 49.0014 26.285 48.7321C26.873 48.471 27.3164 48.1201 27.5767 47.6958L27.808 47.3286H29.4275C30.642 47.3286 31.1143 47.2959 31.3168 47.2143C31.953 46.9287 31.953 46.0964 31.3168 45.8108C31.1143 45.7291 30.642 45.6965 29.4275 45.6965H27.808L27.5381 45.2967C27.249 44.856 26.9405 44.603 26.3814 44.3501L26.0247 44.1869V42.8241C26.0247 41.3389 25.9669 41.1105 25.5331 40.9146C25.1958 40.7677 24.9259 40.7677 24.5885 40.9146C24.1547 41.1105 24.0969 41.3389 24.0969 42.8241V44.1869L23.6245 44.4154C23.104 44.6602 22.8052 44.9213 22.5064 45.3946L22.3136 45.6965H15.0166H7.7099V44.8152V43.9421L8.14367 43.7462C8.64492 43.5259 9.05942 43.1505 9.36788 42.6527C9.68598 42.1631 9.68598 41.0697 9.36788 40.58C9.05942 40.0823 8.64492 39.7069 8.14367 39.4866L7.7099 39.2907V37.928C7.7099 37.0467 7.67134 36.4918 7.59423 36.353C7.38216 35.9613 6.74596 35.7981 6.27363 36.0185ZM7.21829 40.9146C7.86413 41.2002 7.84485 42.0815 7.17973 42.3345C6.68812 42.5222 6.14832 42.3916 5.91697 42.0162C5.46392 41.2737 6.34111 40.5311 7.21829 40.9146ZM25.5331 45.8108C26.179 46.0964 26.1597 46.9777 25.4946 47.2306C25.003 47.4183 24.4632 47.2878 24.2318 46.9124C23.7788 46.1698 24.656 45.4272 25.5331 45.8108Z" fill="white"/>
<path d="M37.5243 37.6268C35.8182 37.9042 34.1602 39.3404 33.8324 40.8011C33.6878 41.4458 33.7071 48.2433 33.8517 48.5125C34.1023 48.9777 33.6493 48.9614 44.3394 48.9614C55.0295 48.9614 54.5764 48.9777 54.8271 48.5125C54.9716 48.2433 54.9909 41.4458 54.8463 40.8011C54.4897 39.218 52.7642 37.8226 50.846 37.5941C50.0266 37.4962 49.7856 37.537 49.294 37.8716C48.7446 38.247 47.7132 38.6386 46.6046 38.8998C45.7757 39.0875 45.4576 39.1201 44.3394 39.1201C43.2212 39.1201 42.9031 39.0956 42.0838 38.8998C40.9367 38.6305 40.098 38.3204 39.5582 37.9777C39.3365 37.8308 39.0666 37.6757 38.9606 37.6268C38.7293 37.5207 38.122 37.5207 37.5243 37.6268ZM38.8738 39.52C39.7414 39.9606 40.7632 40.3197 41.8813 40.5645C42.6236 40.7277 42.9802 40.7522 44.3394 40.7522C45.6985 40.7522 46.0552 40.7277 46.7974 40.5645C47.9156 40.3115 48.9374 39.9606 49.8049 39.52C50.47 39.1854 50.5279 39.1691 50.8845 39.2507C51.7521 39.4465 52.6775 40.2136 52.9185 40.948C52.9763 41.1275 53.0148 42.474 53.0148 44.2855V47.3293H44.3394H35.6639V44.2855C35.6639 42.474 35.7025 41.1275 35.7603 40.948C36.0302 40.132 37.1773 39.267 38.1027 39.1772C38.1509 39.1691 38.4979 39.3241 38.8738 39.52Z" fill="white"/>
</svg>
