<svg width="66" height="69" viewBox="0 0 66 69" fill="none" xmlns="http://www.w3.org/2000/svg">
<g filter="url(#filter0_d)">
<path d="M32.5485 0.227542L32.1536 0.344205L32.1197 1.13168L32.0859 1.91915L31.0477 1.94832L30.0096 1.97748L29.9757 3.30939L29.9419 4.65101H26.4551H22.9571V6.1579V7.6648H20.5874H18.2178V8.09256V8.53005L18.7594 8.55921L19.2898 8.58838L19.3236 34.3806L19.3462 60.1631H23.4649H27.5835V56.6632V53.1633H33.1127H38.6419V56.6632V60.1631L42.7719 60.1436L46.9018 60.1145L46.9244 34.3514L46.9357 8.58838L47.3645 8.55921C47.782 8.53005 47.782 8.52033 47.782 8.09256V7.6648H45.5816H43.3812V6.1579V4.65101H39.601H35.8209V3.28022V1.91915L34.7828 1.9386L33.7333 1.95804L33.6769 1.16084C33.6205 0.37337 33.6092 0.353926 33.282 0.237264C33.0224 0.140045 32.8532 0.140045 32.5485 0.227542ZM43.3699 16.5409C43.3361 16.5798 42.3205 16.5992 41.1131 16.5895L38.924 16.5603L38.8901 14.6451L38.8676 12.7202L41.0905 12.7007L43.3248 12.6716L43.3812 14.5674C43.415 15.6076 43.4038 16.4923 43.3699 16.5409ZM27.3579 14.6646V16.609H25.101H22.8442V14.6646V12.7202H25.101H27.3579V14.6646ZM35.3695 14.6646V16.609H33.1127H30.8559V14.6646V12.7202H33.1127H35.3695V14.6646ZM27.3579 22.4421V24.3865H25.101H22.8442V22.4421V20.4977H25.101H27.3579V22.4421ZM35.3695 22.4421V24.3865H33.1127H30.8559V22.4421V20.4977H33.1127H35.3695V22.4421ZM43.3925 20.5366C43.415 20.556 43.4263 21.431 43.4038 22.481L43.3699 24.3865H41.1244H38.8676V22.4421V20.4977H41.1018C42.3318 20.4977 43.3699 20.5172 43.3925 20.5366ZM27.3579 30.3168V32.2612H25.101H22.8555L22.8217 30.3557C22.7991 29.3058 22.8104 28.4308 22.8329 28.4113C22.8555 28.3919 23.8936 28.3725 25.1236 28.3725H27.3579V30.3168ZM35.3695 30.3168V32.2612L33.1127 32.2418L30.8446 32.2126V30.3363C30.8446 29.3155 30.8559 28.4502 30.8559 28.4211C30.8559 28.3919 31.8715 28.3725 33.1127 28.3725H35.3695V30.3168ZM43.3812 30.3168V32.2612H41.1244H38.8676V30.3168V28.3725H41.1244H43.3812V30.3168ZM27.3579 38.2888V40.2332H25.101H22.8442V38.2888V36.3444H25.101H27.3579V38.2888ZM35.3695 38.2888V40.2332H33.1127H30.8559V38.2888V36.3444H33.1127H35.3695V38.2888ZM43.3812 38.2888V40.2332H41.1244H38.8676V38.3569C38.8676 37.3166 38.9014 36.4416 38.9466 36.4125C38.9804 36.3736 39.996 36.3444 41.2034 36.3444H43.3812V38.2888ZM27.3579 46.1635V48.1079H25.0785H22.7878L22.8217 46.1635L22.8555 44.2192H25.101H27.3579V46.1635ZM35.3695 46.1635V48.1079H33.0901H30.7995L30.8333 46.1635L30.8672 44.2192H33.1127H35.3695V46.1635ZM43.4038 46.1635L43.4376 48.1079H41.1582H38.8676V46.1635V44.2192H41.1244H43.3699L43.4038 46.1635Z" fill="white"/>
<path d="M4 15.7826C4 16.2104 4 16.2201 4.39494 16.2298C4.60934 16.2395 4.85759 16.2493 4.93658 16.259C5.03813 16.2687 5.08327 20.7505 5.1284 38.1916L5.18482 60.1145H11.0525H16.9202L16.9541 38.1624L16.9767 16.2007L17.5409 16.2395L18.1051 16.2687V15.8021V15.3451H11.0525H4V15.7826ZM13.6027 20.5366C13.6253 20.5561 13.6366 21.431 13.614 22.481L13.5802 24.3865H11.3346H9.07782V22.4421V20.4977H11.3121C12.542 20.4977 13.5802 20.5172 13.6027 20.5366ZM13.5914 30.3169V32.2612H11.3346H9.07782V30.3169V28.3725H11.3346H13.5914V30.3169ZM13.5914 38.4833V40.4276H11.3346H9.07782V38.4833V36.5389H11.3346H13.5914V38.4833ZM13.614 44.4136C13.6366 44.4622 13.6366 45.3372 13.614 46.358L13.5802 48.2052H11.3346H9.07782V46.3288C9.07782 45.2886 9.11167 44.4136 9.15681 44.3845C9.28093 44.2775 13.5689 44.3067 13.614 44.4136Z" fill="white"/>
<path d="M47.895 15.7826V16.2201H48.5156H49.1363V38.1916V60.1631H54.8911H60.646V38.1916V16.2201H61.323H62.0001V15.7826V15.3451H54.9475H47.895V15.7826ZM57.1818 22.4129L57.1592 24.3379H54.925H52.6907L52.6569 22.4129L52.6343 20.4977H54.9137H57.2044L57.1818 22.4129ZM57.1254 30.3168L57.1479 32.2612H54.8911H52.6343V30.3363C52.6343 29.2766 52.6569 28.3822 52.6795 28.3627C52.702 28.3433 53.7063 28.3336 54.9137 28.3433L57.0915 28.3627L57.1254 30.3168ZM57.1479 38.4832V40.4276H54.8911H52.6343V38.4832V36.5389H54.8911H57.1479V38.4832ZM57.1592 46.2608V48.1565H54.925H52.6907L52.6569 46.358C52.6456 45.3761 52.6569 44.5108 52.6907 44.4428C52.7246 44.3358 53.2211 44.3164 54.9475 44.3358L57.1592 44.365V46.2608Z" fill="white"/>
</g>
<defs>
<filter id="filter0_d" x="0" y="0.163086" width="66.0001" height="68.0001" filterUnits="userSpaceOnUse" color-interpolation-filters="sRGB">
<feFlood flood-opacity="0" result="BackgroundImageFix"/>
<feColorMatrix in="SourceAlpha" type="matrix" values="0 0 0 0 0 0 0 0 0 0 0 0 0 0 0 0 0 0 127 0"/>
<feOffset dy="4"/>
<feGaussianBlur stdDeviation="2"/>
<feColorMatrix type="matrix" values="0 0 0 0 0 0 0 0 0 0 0 0 0 0 0 0 0 0 0.25 0"/>
<feBlend mode="normal" in2="BackgroundImageFix" result="effect1_dropShadow"/>
<feBlend mode="normal" in="SourceGraphic" in2="effect1_dropShadow" result="shape"/>
</filter>
</defs>
</svg>
